<svg width="18" height="18" viewBox="0 0 18 18" fill="none" xmlns="http://www.w3.org/2000/svg">
<path d="M15.3017 1.6875H10.981C10.8467 1.6874 10.7177 1.74049 10.6224 1.83516L1.98452 10.473C1.79539 10.6631 1.68921 10.9203 1.68921 11.1885C1.68921 11.4566 1.79539 11.7138 1.98452 11.9039L6.09781 16.0172C6.28787 16.2063 6.5451 16.3125 6.81324 16.3125C7.08137 16.3125 7.3386 16.2063 7.52866 16.0172L16.163 7.38281C16.2577 7.28749 16.3108 7.15857 16.3107 7.02422V2.7C16.3113 2.56715 16.2857 2.43549 16.2353 2.31258C16.1849 2.18967 16.1106 2.07796 16.0168 1.98385C15.9231 1.88975 15.8116 1.81512 15.6889 1.76426C15.5661 1.7134 15.4346 1.68731 15.3017 1.6875Z" stroke="#F8FAFC" stroke-linecap="round" stroke-linejoin="round"/>
<path d="M13.5 5.625C13.2775 5.625 13.06 5.55902 12.875 5.4354C12.69 5.31179 12.5458 5.13609 12.4606 4.93052C12.3755 4.72495 12.3532 4.49875 12.3966 4.28052C12.44 4.0623 12.5472 3.86184 12.7045 3.70451C12.8618 3.54717 13.0623 3.44003 13.2805 3.39662C13.4988 3.35321 13.725 3.37549 13.9305 3.46064C14.1361 3.54578 14.3118 3.68998 14.4354 3.87498C14.559 4.05999 14.625 4.2775 14.625 4.5C14.625 4.79837 14.5065 5.08452 14.2955 5.2955C14.0845 5.50647 13.7984 5.625 13.5 5.625Z" fill="#F8FAFC"/>
</svg>
