<svg width="21" height="21" viewBox="0 0 21 21" fill="none" xmlns="http://www.w3.org/2000/svg">
<path d="M19.1752 10.2059C18.4205 6.79423 17.3012 4.61794 15.5072 4.08761C15.1597 3.98625 14.7994 3.93569 14.4375 3.93749C13.3346 3.93749 12.4642 4.59374 10.5 4.59374C8.53576 4.59374 7.66377 3.93749 6.5625 3.93749C6.18546 3.93554 5.80998 3.98607 5.44687 4.08761C3.65039 4.61794 2.54051 6.79628 1.7772 10.2059C0.997908 13.6885 1.139 16.4403 2.66232 16.9686C3.72873 17.3377 4.68234 16.5744 5.5855 15.451C6.6109 14.1713 7.87377 13.7776 10.5 13.7776C13.1262 13.7776 14.3399 14.1713 15.3669 15.451C16.2693 16.5752 17.2581 17.3291 18.2962 16.9751C19.9787 16.4005 19.9549 13.7296 19.1752 10.2059Z" stroke="#F8FAFC" stroke-miterlimit="10"/>
<path d="M11.9766 10.0078C12.4296 10.0078 12.7969 9.64055 12.7969 9.1875C12.7969 8.73445 12.4296 8.36719 11.9766 8.36719C11.5235 8.36719 11.1562 8.73445 11.1562 9.1875C11.1562 9.64055 11.5235 10.0078 11.9766 10.0078Z" fill="#F8FAFC"/>
<path d="M13.7812 11.8125C13.6189 11.8125 13.4602 11.7643 13.3253 11.6741C13.1904 11.5839 13.0852 11.4556 13.0232 11.3056C12.9612 11.1556 12.945 10.9906 12.9769 10.8314C13.0087 10.6722 13.087 10.5261 13.2019 10.4114C13.3169 10.2968 13.4632 10.2188 13.6225 10.1874C13.7817 10.156 13.9467 10.1725 14.0966 10.2349C14.2464 10.2973 14.3744 10.4028 14.4643 10.5379C14.5542 10.6731 14.602 10.8319 14.6016 10.9942C14.601 11.2114 14.5144 11.4196 14.3606 11.573C14.2068 11.7264 13.9985 11.8125 13.7812 11.8125Z" fill="#F8FAFC"/>
<path d="M13.7812 8.20312C14.2343 8.20312 14.6016 7.83586 14.6016 7.38281C14.6016 6.92977 14.2343 6.5625 13.7812 6.5625C13.3282 6.5625 12.9609 6.92977 12.9609 7.38281C12.9609 7.83586 13.3282 8.20312 13.7812 8.20312Z" fill="#F8FAFC"/>
<path d="M15.5859 10.0078C16.039 10.0078 16.4062 9.64055 16.4062 9.1875C16.4062 8.73445 16.039 8.36719 15.5859 8.36719C15.1329 8.36719 14.7656 8.73445 14.7656 9.1875C14.7656 9.64055 15.1329 10.0078 15.5859 10.0078Z" fill="#F8FAFC"/>
<path d="M6.5625 7.21875V11.1562M8.53125 9.1875H4.59375" stroke="#F8FAFC" stroke-linecap="round" stroke-linejoin="round"/>
</svg>
