<svg width="21" height="21" viewBox="0 0 21 21" fill="none" xmlns="http://www.w3.org/2000/svg">
<path d="M15.75 3.28125H5.25C4.16269 3.28125 3.28125 4.16269 3.28125 5.25V15.75C3.28125 16.8373 4.16269 17.7188 5.25 17.7188H15.75C16.8373 17.7188 17.7188 16.8373 17.7188 15.75V5.25C17.7188 4.16269 16.8373 3.28125 15.75 3.28125Z" stroke="#F8FAFC" stroke-linejoin="round"/>
<path d="M14.4375 5.90625H6.5625C6.20006 5.90625 5.90625 6.20006 5.90625 6.5625V14.4375C5.90625 14.7999 6.20006 15.0938 6.5625 15.0938H14.4375C14.7999 15.0938 15.0938 14.7999 15.0938 14.4375V6.5625C15.0938 6.20006 14.7999 5.90625 14.4375 5.90625Z" stroke="#F8FAFC" stroke-linejoin="round"/>
<path d="M10.5 3.28125V1.96875M13.7812 3.28125V1.96875M7.21875 3.28125V1.96875M10.5 19.0312V17.7188M13.7812 19.0312V17.7188M7.21875 19.0312V17.7188M17.7188 10.5H19.0312M17.7188 13.7812H19.0312M17.7188 7.21875H19.0312M1.96875 10.5H3.28125M1.96875 13.7812H3.28125M1.96875 7.21875H3.28125" stroke="#F8FAFC" stroke-linecap="round" stroke-linejoin="round"/>
</svg>
