<svg width="118" height="54" viewBox="0 0 118 54" fill="none" xmlns="http://www.w3.org/2000/svg">
<path d="M38.4279 23.5042H25.0656V29.3542H29.034L38.4279 23.5042Z" fill="#42D9C8"/>
<path fill-rule="evenodd" clip-rule="evenodd" d="M18.7431 41.9092C13.2726 41.9092 8.99789 40.5442 5.91889 37.8142C2.86977 35.0542 1.34521 30.9742 1.34521 25.5742C1.34521 20.2042 2.89967 16.1542 6.00857 13.4242C9.14737 10.6642 13.6912 9.28424 19.6399 9.28424H36.6791V15.1342H20.1332C16.2171 15.1342 13.3175 15.9592 11.4342 17.6092C9.58081 19.2592 8.65413 21.9142 8.65413 25.5742C8.65413 29.0542 9.47621 31.6342 11.1203 33.3142C12.7644 34.9642 15.1709 35.8642 18.3396 36.0142L25.0656 36.0592H31.2535V29.3542H29.034L38.4279 23.5042V41.9092H18.7431Z" fill="#42D9C8"/>
<path d="M18.88 23.2105C20.1834 23.2105 21.24 22.1502 21.24 20.8421C21.24 19.5341 20.1834 18.4737 18.88 18.4737C17.5766 18.4737 16.52 19.5341 16.52 20.8421C16.52 22.1502 17.5766 23.2105 18.88 23.2105Z" fill="white"/>
<path d="M49.2202 24.1966C48.0166 24.2082 46.9035 24.0341 45.8805 23.6745C44.8715 23.3005 43.9885 22.769 43.2314 22.08C42.4884 21.3908 41.9071 20.5721 41.4874 19.624C41.0676 18.6759 40.8523 17.6263 40.8413 16.4753C40.8303 15.3243 41.0255 14.2708 41.4271 13.3148C41.8285 12.3588 42.4012 11.529 43.145 10.8255C43.8888 10.122 44.7686 9.58062 45.7846 9.20134C46.8146 8.80771 47.9453 8.60497 49.1773 8.59313C50.6499 8.57897 51.9621 8.815 53.1137 9.30129C54.2796 9.78748 55.242 10.4888 56.0014 11.4052L52.8216 14.2709C52.3491 13.7354 51.8351 13.3354 51.2805 13.0707C50.7396 12.7917 50.1368 12.6554 49.4713 12.6618C48.9191 12.6671 48.4169 12.7572 47.9656 12.9321C47.5281 13.1068 47.1554 13.3592 46.8471 13.689C46.5387 14.0188 46.3017 14.4119 46.1362 14.8682C45.9706 15.3246 45.8906 15.8441 45.8961 16.4266C45.9015 16.9808 45.9913 17.4916 46.1657 17.9589C46.34 18.4119 46.5844 18.8004 46.899 19.1242C47.2137 19.4481 47.5843 19.7003 48.0109 19.8809C48.4513 20.0472 48.9408 20.1278 49.4789 20.1226C50.0453 20.1172 50.5966 20.0195 51.1327 19.8295C51.6689 19.6254 52.2391 19.286 52.8437 18.8112L55.68 22.2372C54.7799 22.8569 53.7505 23.3358 52.5926 23.6738C51.4348 24.0118 50.3105 24.1861 49.2202 24.1966ZM51.3201 21.6397L51.2659 15.97L55.6196 15.928L55.68 22.2372L51.3201 21.6397ZM64.7122 23.7064L64.6924 21.6388L64.3473 21.0879L64.3096 17.166C64.3044 16.5976 64.1231 16.1659 63.7663 15.8709C63.4236 15.5758 62.8629 15.4319 62.0841 15.4394C61.5602 15.4445 61.0301 15.5348 60.4935 15.7105C59.9573 15.872 59.4989 16.0967 59.1195 16.3846L57.56 13.2234C58.2354 12.7906 59.0463 12.4559 59.9931 12.2194C60.9395 11.9829 61.866 11.8603 62.7718 11.8516C64.7684 11.8324 66.316 12.2651 67.4149 13.1498C68.5278 14.0344 69.0938 15.4501 69.1122 17.3968L69.1721 23.6634L64.7122 23.7064ZM61.4219 23.9512C60.4736 23.9603 59.6788 23.8046 59.0387 23.4839C58.3982 23.1632 57.9126 22.7344 57.5822 22.1976C57.2508 21.6465 57.0823 21.0371 57.0757 20.3692C57.0686 19.616 57.2536 18.9748 57.6312 18.4453C58.0084 17.9159 58.5852 17.5124 59.3611 17.2349C60.1517 16.9573 61.1486 16.8127 62.3522 16.8011L64.7731 16.7778L64.7957 19.1011L63.139 19.1171C62.6292 19.122 62.2545 19.2109 62.0157 19.3837C61.7905 19.5422 61.6796 19.7848 61.6829 20.1117C61.6853 20.3817 61.7867 20.608 61.9864 20.7909C62.2007 20.9594 62.4848 21.0419 62.8388 21.0385C63.1645 21.0353 63.4609 20.9472 63.7281 20.7741C64.0099 20.5866 64.2123 20.3005 64.336 19.9156L64.9657 21.3377C64.7896 22.2063 64.4068 22.8566 63.8159 23.2886C63.2254 23.7207 62.4272 23.9415 61.4219 23.9512ZM86.5101 11.623C87.388 11.6145 88.1758 11.7917 88.8729 12.1545C89.5847 12.5029 90.1421 13.0589 90.5457 13.8224C90.9639 14.5858 91.1786 15.5785 91.1904 16.8006L91.2537 23.4508L86.4539 23.497L86.3982 17.6781C86.3911 16.9533 86.2661 16.4429 86.0225 16.1468C85.779 15.8366 85.466 15.6832 85.0837 15.6869C84.8005 15.6896 84.5461 15.7631 84.321 15.9074C84.0958 16.0517 83.9136 16.2808 83.7753 16.5948C83.6507 16.8944 83.5908 17.3072 83.596 17.8329L83.6502 23.524L78.8505 23.5702L78.7948 17.7512C78.7877 17.0266 78.6697 16.5161 78.4403 16.2199C78.2104 15.9094 77.8904 15.7562 77.4798 15.7602C77.1966 15.7629 76.9427 15.8364 76.7175 15.9807C76.4924 16.1249 76.3102 16.3541 76.1719 16.668C76.0473 16.9677 75.9873 17.3804 75.9925 17.9061L76.0468 23.5972L71.2466 23.6434L71.1352 11.9842L75.7018 11.9402L75.7339 15.2867L74.7903 14.3578C75.2208 13.4726 75.8018 12.8133 76.5344 12.3799C77.2664 11.9323 78.0854 11.7041 78.9916 11.6954C80.0111 11.6856 80.9126 11.9469 81.6966 12.4794C82.4948 12.9975 83.0338 13.8308 83.3137 14.9792L81.8458 14.7588C82.2616 13.7885 82.8705 13.0294 83.672 12.4817C84.488 11.9196 85.4339 11.6334 86.5101 11.623ZM99.9597 23.5801C98.5437 23.5937 97.3024 23.3428 96.2352 22.8272C95.1826 22.3115 94.3613 21.6018 93.7723 20.6979C93.1828 19.7799 92.8826 18.7454 92.8717 17.5944C92.8604 16.415 93.1337 15.3678 93.6916 14.4529C94.2632 13.5379 95.0424 12.8199 96.0284 12.2988C97.0291 11.7775 98.152 11.5109 99.3981 11.4989C100.545 11.4879 101.602 11.705 102.569 12.1505C103.551 12.5958 104.336 13.2633 104.925 14.1529C105.528 15.0424 105.836 16.1479 105.849 17.4694C105.85 17.6399 105.845 17.8319 105.833 18.0451C105.821 18.2442 105.808 18.4291 105.796 18.5997L96.8544 18.6858L96.8323 16.3625L103.225 16.301L101.426 16.9365C101.421 16.4818 101.333 16.0989 101.16 15.7879C101.001 15.4626 100.779 15.216 100.494 15.0483C100.209 14.8662 99.8686 14.7771 99.4722 14.781C99.0757 14.7848 98.7297 14.8805 98.4342 15.0681C98.1524 15.2413 97.9353 15.4921 97.7829 15.8205C97.6299 16.1346 97.5558 16.519 97.5601 16.9737L97.5672 17.6984C97.5719 18.1958 97.6748 18.6211 97.8768 18.9744C98.0783 19.3278 98.3639 19.595 98.734 19.7762C99.1035 19.9432 99.5505 20.0241 100.074 20.0191C100.613 20.0139 101.051 19.9386 101.389 19.7933C101.742 19.6477 102.108 19.4311 102.487 19.1432L105.018 21.6555C104.457 22.272 103.761 22.7477 102.929 23.0826C102.111 23.4031 101.121 23.5689 99.9597 23.5801Z" fill="white"/>
<mask id="mask0_2107_206" style="mask-type:luminance" maskUnits="userSpaceOnUse" x="38" y="5" width="71" height="22">
<path d="M108.76 5.28326H38.2366V26.8016H108.76V5.28326Z" fill="white"/>
<path d="M49.2201 24.1966C48.0165 24.2082 46.9034 24.0341 45.8804 23.6745C44.8714 23.3005 43.9883 22.769 43.2313 22.08C42.4883 21.3908 41.907 20.5721 41.4873 19.624C41.0675 18.6759 40.8521 17.6263 40.8411 16.4753C40.8301 15.3243 41.0254 14.2708 41.4269 13.3148C41.8284 12.3588 42.4011 11.529 43.1449 10.8255C43.8887 10.122 44.7685 9.58062 45.7845 9.20134C46.8144 8.80771 47.9452 8.60497 49.1771 8.59313C50.6498 8.57897 51.9619 8.815 53.1136 9.30129C54.2795 9.78748 55.2419 10.4888 56.0013 11.4052L52.8214 14.2709C52.349 13.7354 51.835 13.3354 51.2804 13.0707C50.7394 12.7917 50.1367 12.6554 49.4712 12.6618C48.9189 12.6671 48.4167 12.7572 47.9655 12.9321C47.528 13.1068 47.1553 13.3592 46.847 13.689C46.5386 14.0188 46.3016 14.4119 46.136 14.8682C45.9705 15.3246 45.8905 15.8441 45.896 16.4266C45.9014 16.9808 45.9912 17.4916 46.1656 17.9589C46.3398 18.4119 46.5843 18.8004 46.8989 19.1242C47.2136 19.4481 47.5841 19.7003 48.0108 19.8809C48.4512 20.0472 48.9407 20.1278 49.4787 20.1226C50.0451 20.1172 50.5964 20.0195 51.1326 19.8295C51.6688 19.6254 52.239 19.286 52.8436 18.8112L55.6799 22.2372C54.7798 22.8569 53.7503 23.3358 52.5925 23.6738C51.4347 24.0118 50.3104 24.1861 49.2201 24.1966ZM51.32 21.6397L51.2657 15.97L55.6195 15.928L55.6799 22.2372L51.32 21.6397ZM64.7121 23.7064L64.6922 21.6388L64.3472 21.0879L64.3094 17.166C64.3043 16.5976 64.123 16.1659 63.7662 15.8709C63.4235 15.5758 62.8628 15.4319 62.084 15.4394C61.56 15.4445 61.03 15.5348 60.4933 15.7105C59.9571 15.872 59.4988 16.0967 59.1193 16.3846L57.5598 13.2234C58.2353 12.7906 59.0462 12.4559 59.993 12.2194C60.9394 11.9829 61.8659 11.8603 62.7717 11.8516C64.7682 11.8324 66.3159 12.2651 67.4147 13.1498C68.5277 14.0344 69.0936 15.4501 69.112 17.3968L69.172 23.6634L64.7121 23.7064ZM61.4218 23.9512C60.4735 23.9603 59.6787 23.8046 59.0386 23.4839C58.3981 23.1632 57.9124 22.7344 57.582 22.1976C57.2507 21.6465 57.0822 21.0371 57.0756 20.3692C57.0685 19.616 57.2535 18.9748 57.6311 18.4453C58.0082 17.9159 58.585 17.5124 59.361 17.2349C60.1516 16.9573 61.1485 16.8127 62.3521 16.8011L64.773 16.7778L64.7956 19.1011L63.1389 19.1171C62.6291 19.122 62.2544 19.2109 62.0155 19.3837C61.7904 19.5422 61.6795 19.7848 61.6828 20.1117C61.6851 20.3817 61.7866 20.608 61.9863 20.7909C62.2006 20.9594 62.4847 21.0419 62.8387 21.0385C63.1644 21.0353 63.4608 20.9472 63.7279 20.7741C64.0097 20.5866 64.2122 20.3005 64.3359 19.9156L64.9655 21.3377C64.7895 22.2063 64.4067 22.8566 63.8157 23.2886C63.2253 23.7207 62.4271 23.9415 61.4218 23.9512ZM86.51 11.623C87.3879 11.6145 88.1757 11.7917 88.8728 12.1545C89.5846 12.5029 90.142 13.0589 90.5456 13.8224C90.9638 14.5858 91.1785 15.5785 91.1903 16.8006L91.2536 23.4508L86.4538 23.497L86.3981 17.6781C86.391 16.9533 86.2659 16.4429 86.0224 16.1468C85.7788 15.8366 85.4659 15.6832 85.0836 15.6869C84.8004 15.6896 84.546 15.7631 84.3208 15.9074C84.0957 16.0517 83.9135 16.2808 83.7752 16.5948C83.6506 16.8944 83.5906 17.3072 83.5958 17.8329L83.6501 23.524L78.8504 23.5702L78.7947 17.7512C78.7876 17.0266 78.6696 16.5161 78.4402 16.2199C78.2103 15.9094 77.8903 15.7562 77.4797 15.7602C77.1965 15.7629 76.9425 15.8364 76.7174 15.9807C76.4922 16.1249 76.31 16.3541 76.1718 16.668C76.0471 16.9677 75.9872 17.3804 75.9924 17.9061L76.0467 23.5972L71.2464 23.6434L71.135 11.9842L75.7016 11.9402L75.7337 15.2867L74.7902 14.3578C75.2207 13.4726 75.8017 12.8133 76.5343 12.3799C77.2663 11.9323 78.0852 11.7041 78.9915 11.6954C80.011 11.6856 80.9125 11.9469 81.6965 12.4794C82.4947 12.9975 83.0337 13.8308 83.3136 14.9792L81.8457 14.7588C82.2615 13.7885 82.8704 13.0294 83.6718 12.4817C84.4879 11.9196 85.4338 11.6334 86.51 11.623ZM99.9596 23.5801C98.5436 23.5937 97.3022 23.3428 96.2351 22.8272C95.1825 22.3115 94.3612 21.6018 93.7722 20.6979C93.1826 19.7799 92.8824 18.7454 92.8716 17.5944C92.8603 16.415 93.1335 15.3678 93.6914 14.4529C94.263 13.5379 95.0423 12.8199 96.0283 12.2988C97.029 11.7775 98.1519 11.5109 99.3979 11.4989C100.545 11.4879 101.602 11.705 102.569 12.1505C103.551 12.5958 104.336 13.2633 104.925 14.1529C105.528 15.0424 105.836 16.1479 105.849 17.4694C105.85 17.6399 105.845 17.8319 105.833 18.0451C105.821 18.2442 105.808 18.4291 105.796 18.5997L96.8543 18.6858L96.8321 16.3625L103.225 16.301L101.426 16.9365C101.421 16.4818 101.333 16.0989 101.159 15.7879C101.001 15.4626 100.779 15.216 100.494 15.0483C100.209 14.8662 99.8685 14.7771 99.472 14.781C99.0756 14.7848 98.7296 14.8805 98.4341 15.0681C98.1523 15.2413 97.9352 15.4921 97.7827 15.8205C97.6298 16.1346 97.5557 16.519 97.56 16.9737L97.567 17.6984C97.5718 18.1958 97.6747 18.6211 97.8767 18.9744C98.0782 19.3278 98.3638 19.595 98.7338 19.7762C99.1034 19.9432 99.5504 20.0241 100.074 20.0191C100.612 20.0139 101.05 19.9386 101.389 19.7933C101.742 19.6477 102.108 19.4311 102.487 19.1432L105.018 21.6555C104.457 22.272 103.761 22.7477 102.928 23.0826C102.111 23.4031 101.121 23.5689 99.9596 23.5801Z" fill="black"/>
</mask>
<g mask="url(#mask0_2107_206)">
<path d="M45.8804 23.6746L45.0627 25.8963L45.0814 25.9032L45.1002 25.9098L45.8804 23.6746ZM43.2313 22.08L41.6293 23.8192L41.6376 23.8268L41.6459 23.8344L43.2313 22.08ZM45.7845 9.20137L46.6073 11.4212L46.6158 11.418L46.6244 11.4148L45.7845 9.20137ZM53.1136 9.30131L52.1984 11.4844L52.2031 11.4864L52.2079 11.4885L53.1136 9.30131ZM56.0013 11.4052L57.5778 13.1674L59.2685 11.6441L57.8157 9.89096L56.0013 11.4052ZM52.8215 14.271L51.0543 15.841L52.6298 17.6267L54.3979 16.0332L52.8215 14.271ZM51.2804 13.0708L50.2014 15.1771L50.234 15.1939L50.267 15.2098L51.2804 13.0708ZM47.9655 12.9321L47.1157 10.7226L47.1041 10.7271L47.0925 10.7317L47.9655 12.9321ZM46.1656 17.9589L43.9555 18.7896L43.9597 18.8007L43.9639 18.8118L46.1656 17.9589ZM48.0108 19.881L47.0932 22.063L47.1362 22.0813L47.1799 22.0978L48.0108 19.881ZM51.1327 19.8296L51.9181 22.063L51.944 22.0538L51.9695 22.044L51.1327 19.8296ZM52.8437 18.8112L54.6585 17.2976L53.1939 15.5283L51.3885 16.9462L52.8437 18.8112ZM55.6799 22.2372L57.0147 24.1903L59.1491 22.7213L57.4952 20.7236L55.6799 22.2372ZM51.32 21.6397L48.96 21.6624L48.9794 23.7094L51.0005 23.9863L51.32 21.6397ZM51.2658 15.97L51.2431 13.6017L48.8831 13.6244L48.9058 15.9927L51.2658 15.97ZM55.6195 15.928L57.9795 15.9053L57.9568 13.537L55.5968 13.5597L55.6195 15.928ZM55.6799 22.2372L55.3608 24.5839L58.0659 24.9546L58.0399 22.2145L55.6799 22.2372ZM49.2201 24.1966L49.1975 21.8283C48.2374 21.8376 47.3987 21.6988 46.6606 21.4393L45.8804 23.6746L45.1002 25.9098C46.408 26.3695 47.7961 26.5789 49.2428 26.5649L49.2201 24.1966ZM45.8804 23.6746L46.698 21.4528C45.9574 21.1783 45.3384 20.8004 44.8167 20.3256L43.2313 22.08L41.6459 23.8344C42.6383 24.7376 43.7855 25.4228 45.0627 25.8963L45.8804 23.6746ZM43.2313 22.08L44.8332 20.3408C44.3312 19.875 43.9363 19.3227 43.644 18.6624L41.4873 19.624L39.3305 20.5856C39.8777 21.8215 40.6455 22.9065 41.6293 23.8192L43.2313 22.08ZM41.4873 19.624L43.644 18.6624C43.3689 18.0409 43.2093 17.3156 43.2011 16.4526L40.8412 16.4754L38.4813 16.4981C38.495 17.9371 38.7662 19.3109 39.3305 20.5856L41.4873 19.624ZM40.8412 16.4754L43.2011 16.4526C43.1928 15.5897 43.3385 14.8614 43.6017 14.2347L41.427 13.3148L39.2522 12.3949C38.7124 13.6803 38.4675 15.059 38.4813 16.4981L40.8412 16.4754ZM41.427 13.3148L43.6017 14.2347C43.8771 13.5789 44.2617 13.0239 44.7635 12.5491L43.1449 10.8255L41.5263 9.10199C40.5406 10.0343 39.7798 11.1387 39.2522 12.3949L41.427 13.3148ZM43.1449 10.8255L44.7635 12.5491C45.2641 12.0757 45.8689 11.6969 46.6073 11.4212L45.7845 9.20137L44.9617 6.98159C43.6683 7.46441 42.5133 8.1684 41.5263 9.10199L43.1449 10.8255ZM45.7845 9.20137L46.6244 11.4148C47.3642 11.132 48.2147 10.971 49.1998 10.9615L49.1772 8.59316L49.1545 6.22483C47.6762 6.23909 46.2646 6.48356 44.9446 6.98803L45.7845 9.20137ZM49.1772 8.59316L49.1998 10.9615C50.4072 10.9498 51.3918 11.1437 52.1984 11.4844L53.1136 9.30131L54.0288 7.11829C52.5321 6.48635 50.8924 6.20811 49.1545 6.22483L49.1772 8.59316ZM53.1136 9.30131L52.2079 11.4885C53.0438 11.837 53.6871 12.3164 54.1865 12.9195L56.0013 11.4052L57.8157 9.89096C56.7971 8.66118 55.5152 7.73797 54.0194 7.11422L53.1136 9.30131ZM56.0013 11.4052L54.4244 9.64298L51.2445 12.5088L52.8215 14.271L54.3979 16.0332L57.5778 13.1674L56.0013 11.4052ZM52.8215 14.271L54.5882 12.7009C53.9387 11.9647 53.1774 11.3534 52.2938 10.9317L51.2804 13.0708L50.267 15.2098C50.4931 15.3175 50.7588 15.5063 51.0543 15.841L52.8215 14.271ZM51.2804 13.0708L52.3594 10.9644C51.4465 10.4934 50.4601 10.2838 49.4486 10.2935L49.4712 12.6618L49.4939 15.0301C49.8129 15.0271 50.0324 15.09 50.2014 15.1771L51.2804 13.0708ZM49.4712 12.6618L49.4486 10.2935C48.6528 10.3012 47.8655 10.4321 47.1157 10.7226L47.9655 12.9321L48.8151 15.1417C48.9681 15.0824 49.1852 15.0331 49.4939 15.0301L49.4712 12.6618ZM47.9655 12.9321L47.0925 10.7317C46.3482 11.0291 45.6818 11.4739 45.126 12.0684L46.847 13.689L48.5678 15.3096C48.6292 15.2444 48.708 15.1846 48.8387 15.1326L47.9655 12.9321ZM46.847 13.689L45.126 12.0684C44.5834 12.6487 44.1851 13.3231 43.9185 14.058L46.1361 14.8682L48.3535 15.6785C48.4182 15.5008 48.4937 15.389 48.5678 15.3096L46.847 13.689ZM46.1361 14.8682L43.9185 14.058C43.6389 14.8285 43.5284 15.638 43.5362 16.4494L45.8961 16.4267L48.2558 16.404C48.2525 16.0501 48.3021 15.8206 48.3535 15.6785L46.1361 14.8682ZM45.8961 16.4267L43.5362 16.4494C43.5438 17.2492 43.6746 18.0368 43.9555 18.7896L46.1656 17.9589L48.3757 17.1282C48.3077 16.9464 48.2591 16.7125 48.2558 16.404L45.8961 16.4267ZM46.1656 17.9589L43.9639 18.8118C44.2445 19.5414 44.6557 20.208 45.2092 20.7777L46.899 19.1242L48.5886 17.4708C48.5131 17.3929 48.4352 17.2826 48.3672 17.1061L46.1656 17.9589ZM46.899 19.1242L45.2092 20.7777C45.7496 21.3339 46.3848 21.763 47.0932 22.063L48.0108 19.881L48.9284 17.6989C48.7835 17.6376 48.6773 17.5623 48.5886 17.4708L46.899 19.1242ZM48.0108 19.881L47.1799 22.0978C47.9292 22.3806 48.7132 22.4985 49.5014 22.491L49.4788 20.1226L49.4561 17.7543C49.1682 17.7571 48.9733 17.7139 48.8416 17.6642L48.0108 19.881ZM49.4788 20.1226L49.5014 22.491C50.3288 22.483 51.1374 22.3394 51.9181 22.063L51.1327 19.8296L50.3472 17.5961C50.0551 17.6996 49.7615 17.7514 49.4561 17.7543L49.4788 20.1226ZM51.1327 19.8296L51.9695 22.044C52.7889 21.7322 53.5658 21.2516 54.2984 20.6762L52.8437 18.8112L51.3885 16.9462C50.9122 17.3204 50.5488 17.5187 50.2958 17.6151L51.1327 19.8296ZM52.8437 18.8112L51.0283 20.3248L53.8646 23.7508L55.6799 22.2372L57.4952 20.7236L54.6585 17.2976L52.8437 18.8112ZM55.6799 22.2372L54.3451 20.2841C53.672 20.7474 52.8757 21.1247 51.9336 21.3997L52.5926 23.6738L53.2515 25.948C54.6255 25.547 55.8871 24.9665 57.0147 24.1903L55.6799 22.2372ZM52.5926 23.6738L51.9336 21.3997C50.9608 21.6836 50.0508 21.8201 49.1975 21.8283L49.2201 24.1966L49.2428 26.5649C50.57 26.5521 51.9086 26.3401 53.2515 25.948L52.5926 23.6738ZM51.32 21.6397L53.6796 21.617L53.6258 15.9472L51.2658 15.97L48.9058 15.9927L48.96 21.6624L51.32 21.6397ZM51.2658 15.97L51.2884 18.3383L55.6421 18.2963L55.6195 15.928L55.5968 13.5597L51.2431 13.6017L51.2658 15.97ZM55.6195 15.928L53.26 15.9508L53.3199 22.2599L55.6799 22.2372L58.0399 22.2145L57.9795 15.9053L55.6195 15.928ZM55.6799 22.2372L55.9994 19.8906L51.6391 19.2931L51.32 21.6397L51.0005 23.9863L55.3608 24.5839L55.6799 22.2372ZM64.7121 23.7064L62.3521 23.7291L62.3747 26.0974L64.7347 26.0747L64.7121 23.7064ZM64.6923 21.6388L67.0523 21.6161L67.0457 20.9458L66.6902 20.3782L64.6923 21.6388ZM64.3472 21.0879L61.9872 21.1106L61.9938 21.781L62.3493 22.3485L64.3472 21.0879ZM63.7662 15.8709L62.2294 17.6682L62.2473 17.6838L62.2657 17.6989L63.7662 15.8709ZM60.4934 15.7105L61.1716 17.9792L61.1985 17.971L61.2259 17.9621L60.4934 15.7105ZM59.1194 16.3846L57.0043 17.4355L58.2688 19.9983L60.542 18.2742L59.1194 16.3846ZM57.5599 13.2234L56.2897 11.2272L54.5056 12.3704L55.4448 14.2743L57.5599 13.2234ZM67.4148 13.1499L65.9379 14.9972L65.944 15.0019L65.9497 15.0066L67.4148 13.1499ZM69.172 23.6634L69.1947 26.0317L71.5547 26.009L71.532 23.6407L69.172 23.6634ZM57.5821 22.1976L55.5605 23.4202L55.5676 23.4318L55.5746 23.4433L57.5821 22.1976ZM59.361 17.235L58.5813 14.9995L58.5751 15.0017L58.569 15.0039L59.361 17.235ZM64.773 16.7779L67.133 16.7551L67.1103 14.3868L64.7503 14.4095L64.773 16.7779ZM64.7956 19.1011L64.8178 21.4695L67.1778 21.4467L67.1552 19.0784L64.7956 19.1011ZM62.0156 19.3837L63.3711 21.3224L63.3829 21.314L63.3947 21.3054L62.0156 19.3837ZM61.9863 20.7909L60.3975 22.5418L60.4617 22.6006L60.5302 22.6544L61.9863 20.7909ZM63.728 20.7741L65.0076 22.7644L65.0203 22.756L65.0331 22.7475L63.728 20.7741ZM64.3359 19.9156L66.4925 18.954L63.9862 13.2918L62.0901 19.1882L64.3359 19.9156ZM64.9656 21.3378L67.2784 21.8092L67.4284 21.0677L67.1221 20.3761L64.9656 21.3378ZM64.7121 23.7064L67.0721 23.6836L67.0523 21.6161L64.6923 21.6388L62.3323 21.6615L62.3521 23.7291L64.7121 23.7064ZM64.6923 21.6388L66.6902 20.3782L66.3452 19.8273L64.3472 21.0879L62.3493 22.3485L62.6943 22.8994L64.6923 21.6388ZM64.3472 21.0879L66.7068 21.0652L66.6695 17.1433L64.3095 17.166L61.9495 17.1887L61.9872 21.1106L64.3472 21.0879ZM64.3095 17.166L66.6695 17.1433C66.6591 16.0476 66.2815 14.8817 65.2667 14.0428L63.7662 15.8709L62.2657 17.6989C62.1463 17.6003 62.051 17.469 61.9948 17.3351C61.9438 17.2134 61.9495 17.1485 61.9495 17.1887L64.3095 17.166ZM63.7662 15.8709L65.303 14.0736C64.3066 13.2154 63.0332 13.0618 62.0613 13.0711L62.084 15.4395L62.1067 17.8078C62.2275 17.8066 62.3205 17.8116 62.3889 17.8185C62.4583 17.8255 62.4946 17.8338 62.5041 17.8363C62.5291 17.8427 62.3993 17.8148 62.2294 17.6682L63.7662 15.8709ZM62.084 15.4395L62.0613 13.0711C61.2788 13.0787 60.5094 13.214 59.7613 13.459L60.4934 15.7105L61.2259 17.9621C61.5506 17.8557 61.8419 17.8103 62.1067 17.8078L62.084 15.4395ZM60.4934 15.7105L59.8156 13.442C59.0571 13.6703 58.3358 14.0102 57.6963 14.4951L59.1194 16.3846L60.542 18.2742C60.6619 18.1833 60.8573 18.0738 61.1716 17.9792L60.4934 15.7105ZM59.1194 16.3846L61.2344 15.3337L59.6749 12.1726L57.5599 13.2234L55.4448 14.2743L57.0043 17.4355L59.1194 16.3846ZM57.5599 13.2234L58.8296 15.2197C59.2492 14.9511 59.8127 14.7052 60.5632 14.5177L59.993 12.2194L59.4229 9.92118C58.2801 10.2067 57.2219 10.6301 56.2897 11.2272L57.5599 13.2234ZM59.993 12.2194L60.5632 14.5177C61.3439 14.3226 62.0864 14.2267 62.7944 14.2199L62.7717 11.8516L62.749 9.4833C61.645 9.49392 60.5349 9.64331 59.4229 9.92118L59.993 12.2194ZM62.7717 11.8516L62.7944 14.2199C64.4695 14.2038 65.4107 14.5726 65.9379 14.9972L67.4148 13.1499L68.8917 11.3025C67.2217 9.9577 65.0675 9.46099 62.749 9.4833L62.7717 11.8516ZM67.4148 13.1499L65.9497 15.0066C66.3174 15.299 66.7379 15.9103 66.7525 17.4196L69.1121 17.3969L71.4721 17.3741C71.4494 14.9899 70.7381 12.7699 68.8799 11.2932L67.4148 13.1499ZM69.1121 17.3969L66.7525 17.4196L66.8125 23.6862L69.172 23.6634L71.532 23.6407L71.4721 17.3741L69.1121 17.3969ZM69.172 23.6634L69.1494 21.2951L64.6894 21.3381L64.7121 23.7064L64.7347 26.0747L69.1947 26.0317L69.172 23.6634ZM61.4218 23.9512L61.3991 21.5829C60.7072 21.5896 60.3079 21.4726 60.0922 21.3647L59.0387 23.4839L57.9847 25.6031C59.05 26.1366 60.2394 26.3311 61.4444 26.3195L61.4218 23.9512ZM59.0387 23.4839L60.0922 21.3647C59.7891 21.2129 59.6584 21.0648 59.589 20.9518L57.5821 22.1976L55.5746 23.4433C56.1665 24.4041 57.0072 25.1135 57.9847 25.6031L59.0387 23.4839ZM57.5821 22.1976L59.6032 20.9749C59.4984 20.8005 59.4384 20.6081 59.4356 20.3465L57.0756 20.3692L54.7161 20.3919C54.726 21.4661 55.0035 22.4926 55.5605 23.4202L57.5821 22.1976ZM57.0756 20.3692L59.4356 20.3465C59.4323 20.0134 59.5083 19.8825 59.5508 19.8231L57.6311 18.4454L55.7111 17.0677C54.9993 18.0671 54.7048 19.2187 54.7161 20.3919L57.0756 20.3692ZM57.6311 18.4454L59.5508 19.8231C59.58 19.7814 59.7079 19.6252 60.153 19.4661L59.361 17.235L58.569 15.0039C57.4617 15.3997 56.436 16.0504 55.7111 17.0677L57.6311 18.4454ZM59.361 17.235L60.1408 19.4704C60.6066 19.3068 61.326 19.1796 62.3747 19.1694L62.3521 16.8012L62.3294 14.4328C60.9705 14.4459 59.6961 14.6079 58.5813 14.9995L59.361 17.235ZM62.3521 16.8012L62.3747 19.1694L64.7956 19.1461L64.773 16.7779L64.7503 14.4095L62.3294 14.4328L62.3521 16.8012ZM64.773 16.7779L62.4134 16.8005L62.4356 19.1239L64.7956 19.1011L67.1552 19.0784L67.133 16.7551L64.773 16.7779ZM64.7956 19.1011L64.773 16.7329L63.1163 16.7488L63.1389 19.1171L63.1616 21.4854L64.8178 21.4695L64.7956 19.1011ZM63.1389 19.1171L63.1163 16.7488C62.4356 16.7554 61.4671 16.8614 60.6359 17.462L62.0156 19.3837L63.3947 21.3054C63.1993 21.4467 63.045 21.486 63.019 21.4922C62.9907 21.499 63.0289 21.4867 63.1616 21.4854L63.1389 19.1171ZM62.0156 19.3837L60.66 17.445C59.6749 18.1387 59.3138 19.1928 59.3228 20.1344L61.6828 20.1117L64.0423 20.089C64.0437 20.1976 64.0267 20.414 63.9083 20.6724C63.7837 20.9458 63.5892 21.169 63.3711 21.3224L62.0156 19.3837ZM61.6828 20.1117L59.3228 20.1344C59.3318 21.0671 59.715 21.9183 60.3975 22.5418L61.9863 20.7909L63.5755 19.0399C63.6921 19.1466 63.8195 19.3039 63.9135 19.5139C64.0074 19.7242 64.0409 19.9262 64.0423 20.089L61.6828 20.1117ZM61.9863 20.7909L60.5302 22.6544C61.2783 23.2434 62.1345 23.4138 62.8614 23.4068L62.8387 21.0385L62.8161 18.6702C62.8345 18.67 63.1229 18.6753 63.4429 18.9274L61.9863 20.7909ZM62.8387 21.0385L62.8614 23.4068C63.6218 23.3995 64.3557 23.1861 65.0076 22.7644L63.728 20.7741L62.4489 18.7839C62.4984 18.7518 62.5617 18.7209 62.6353 18.6991C62.708 18.6775 62.7712 18.6706 62.8161 18.6702L62.8387 21.0385ZM63.728 20.7741L65.0331 22.7475C65.8416 22.2091 66.3268 21.4358 66.5817 20.643L64.3359 19.9156L62.0901 19.1882C62.0911 19.1849 62.1095 19.1285 62.1671 19.0472C62.2275 18.9619 62.3139 18.8735 62.4229 18.8008L63.728 20.7741ZM64.3359 19.9156L62.1793 20.8772L62.8085 22.2994L64.9656 21.3378L67.1221 20.3761L66.4925 18.954L64.3359 19.9156ZM64.9656 21.3378L62.6528 20.8664C62.5683 21.2826 62.4451 21.3607 62.4257 21.3747L63.8158 23.2886L65.2058 25.2026C66.3679 24.3526 67.0107 23.1301 67.2784 21.8092L64.9656 21.3378ZM63.8158 23.2886L62.4257 21.3747C62.3573 21.4249 62.093 21.5762 61.3991 21.5829L61.4218 23.9512L61.4444 26.3195C62.7613 26.3069 64.0933 26.0164 65.2058 25.2026L63.8158 23.2886ZM88.8728 12.1545L87.7868 14.2572L87.8122 14.2704L87.8377 14.283L88.8728 12.1545ZM90.5456 13.8224L88.4612 14.9328L88.4693 14.9479L88.4773 14.963L90.5456 13.8224ZM91.2536 23.4508L91.2763 25.8191L93.6363 25.7964L93.6136 23.428L91.2536 23.4508ZM86.4538 23.497L84.0938 23.5198L84.1165 25.888L86.4765 25.8653L86.4538 23.497ZM86.0224 16.1469L84.1689 17.613L84.1854 17.634L84.2024 17.6547L86.0224 16.1469ZM83.7752 16.5949L81.6172 15.6355L81.6069 15.6591L81.5969 15.6828L83.7752 16.5949ZM83.6502 23.524L83.6728 25.8923L86.0328 25.8696L86.0102 23.5013L83.6502 23.524ZM78.8504 23.5702L76.4904 23.5929L76.513 25.9613L78.873 25.9385L78.8504 23.5702ZM78.4402 16.2199L76.5447 17.6312L76.5607 17.6524L76.5768 17.6733L78.4402 16.2199ZM76.1718 16.6681L74.0138 15.7087L74.0034 15.7323L73.9935 15.756L76.1718 16.6681ZM76.0467 23.5972L76.0694 25.9655L78.4294 25.9428L78.4067 23.5745L76.0467 23.5972ZM71.2465 23.6434L68.8869 23.6662L68.9096 26.0345L71.2691 26.0118L71.2465 23.6434ZM71.1351 11.9843L71.1124 9.61594L68.7524 9.63867L68.7751 12.007L71.1351 11.9843ZM75.7017 11.9403L78.0617 11.9176L78.039 9.54924L75.679 9.57198L75.7017 11.9403ZM75.7338 15.2867L74.0808 16.9774L78.148 20.9816L78.0933 15.264L75.7338 15.2867ZM74.7902 14.3578L72.6691 13.319L71.9233 14.8531L73.1373 16.0486L74.7902 14.3578ZM76.5343 12.3799L77.7332 14.4199L77.7478 14.4113L77.7619 14.4025L76.5343 12.3799ZM81.6965 12.4794L80.374 14.4408L80.3943 14.4546L80.4146 14.4679L81.6965 12.4794ZM83.3136 14.9792L82.9643 17.3216L86.4416 17.8436L85.6061 14.4163L83.3136 14.9792ZM81.8457 14.7589L79.6778 13.8237L78.469 16.6466L81.4969 17.1012L81.8457 14.7589ZM83.6719 12.4817L85.0001 14.4397L85.0038 14.437L85.0076 14.4343L83.6719 12.4817ZM86.51 11.623L86.5327 13.9914C87.0712 13.9861 87.4705 14.0927 87.7868 14.2572L88.8728 12.1545L89.9589 10.0518C88.8809 9.49079 87.7051 9.243 86.4873 9.2547L86.51 11.623ZM88.8728 12.1545L87.8377 14.283C88.061 14.3923 88.2696 14.5703 88.4612 14.9328L90.5456 13.8224L92.6304 12.7121C92.0145 11.5475 91.1077 10.6136 89.9079 10.0261L88.8728 12.1545ZM90.5456 13.8224L88.4773 14.963C88.6472 15.2734 88.8209 15.8435 88.8303 16.8233L91.1903 16.8006L93.5499 16.7779C93.5362 15.3135 93.2799 13.8982 92.6139 12.6819L90.5456 13.8224ZM91.1903 16.8006L88.8303 16.8233L88.8941 23.4735L91.2536 23.4508L93.6136 23.428L93.5499 16.7779L91.1903 16.8006ZM91.2536 23.4508L91.2309 21.0825L86.4312 21.1287L86.4538 23.497L86.4765 25.8653L91.2763 25.8191L91.2536 23.4508ZM86.4538 23.497L88.8138 23.4743L88.7581 17.6554L86.3981 17.6781L84.0381 17.7008L84.0938 23.5198L86.4538 23.497ZM86.3981 17.6781L88.7581 17.6554C88.7501 16.8061 88.6246 15.5902 87.8424 14.6391L86.0224 16.1469L84.2024 17.6547C84.1146 17.548 84.0646 17.4547 84.0381 17.397C84.0122 17.3402 84.0056 17.3096 84.0075 17.3181C84.0093 17.326 84.0169 17.3605 84.0244 17.4277C84.0315 17.4942 84.0372 17.5842 84.0381 17.7008L86.3981 17.6781ZM86.0224 16.1469L87.876 14.6808C87.1953 13.8144 86.199 13.3077 85.061 13.3186L85.0836 15.687L85.1063 18.0553C84.967 18.0566 84.7735 18.0275 84.5696 17.9276C84.3681 17.8288 84.2378 17.7009 84.1689 17.613L86.0224 16.1469ZM85.0836 15.687L85.061 13.3186C84.3629 13.3254 83.6714 13.5135 83.0507 13.9112L84.3209 15.9075L85.591 17.9038C85.5141 17.9528 85.4268 17.9931 85.3338 18.0199C85.2417 18.0466 85.1629 18.0547 85.1063 18.0553L85.0836 15.687ZM84.3209 15.9075L83.0507 13.9112C82.3385 14.3678 81.8915 15.0146 81.6172 15.6355L83.7752 16.5949L85.9327 17.5542C85.936 17.5472 85.853 17.7357 85.591 17.9038L84.3209 15.9075ZM83.7752 16.5949L81.5969 15.6828C81.2968 16.4057 81.2297 17.1839 81.2359 17.8557L83.5959 17.8329L85.9559 17.8102C85.954 17.6392 85.9639 17.5295 85.9724 17.4698C85.9814 17.4072 85.9851 17.4304 85.953 17.5069L83.7752 16.5949ZM83.5959 17.8329L81.2359 17.8557L81.2901 23.5468L83.6502 23.524L86.0102 23.5013L85.9559 17.8102L83.5959 17.8329ZM83.6502 23.524L83.6275 21.1557L78.8277 21.2019L78.8504 23.5702L78.873 25.9385L83.6728 25.8923L83.6502 23.524ZM78.8504 23.5702L81.2099 23.5475L81.1547 17.7286L78.7947 17.7513L76.4347 17.774L76.4904 23.5929L78.8504 23.5702ZM78.7947 17.7513L81.1547 17.7286C81.1467 16.8971 81.0329 15.7085 80.3037 14.7665L78.4402 16.2199L76.5768 17.6733C76.4932 17.5655 76.4474 17.4742 76.4252 17.4222C76.4031 17.3706 76.3983 17.3461 76.4021 17.3609C76.4054 17.3749 76.4134 17.4151 76.4205 17.4874C76.4281 17.5591 76.4337 17.6536 76.4347 17.774L78.7947 17.7513ZM78.4402 16.2199L80.3353 14.8086C79.6221 13.844 78.5644 13.3812 77.457 13.3919L77.4797 15.7602L77.5023 18.1285C77.4051 18.1294 77.2234 18.1111 77.0119 18.0098C76.7948 17.9058 76.6395 17.7591 76.5447 17.6312L78.4402 16.2199ZM77.4797 15.7602L77.457 13.3919C76.7594 13.3986 76.0679 13.5867 75.4473 13.9844L76.7174 15.9807L77.9871 17.977C77.9106 18.026 77.8233 18.0663 77.7303 18.0932C77.6383 18.1198 77.5595 18.1279 77.5023 18.1285L77.4797 15.7602ZM76.7174 15.9807L75.4473 13.9844C74.7345 14.441 74.288 15.0877 74.0138 15.7087L76.1718 16.6681L78.3293 17.6274C78.3326 17.6204 78.2495 17.809 77.9871 17.977L76.7174 15.9807ZM76.1718 16.6681L73.9935 15.756C73.6928 16.4789 73.6258 17.2572 73.6324 17.9289L75.9924 17.9062L78.3519 17.8834C78.3505 17.7123 78.36 17.6028 78.3689 17.543C78.3779 17.4804 78.3812 17.5036 78.3496 17.5801L76.1718 16.6681ZM75.9924 17.9062L73.6324 17.9289L73.6867 23.6199L76.0467 23.5972L78.4067 23.5745L78.3519 17.8834L75.9924 17.9062ZM76.0467 23.5972L76.024 21.2289L71.2238 21.2752L71.2465 23.6434L71.2691 26.0118L76.0694 25.9655L76.0467 23.5972ZM71.2465 23.6434L73.6065 23.6207L73.4951 11.9615L71.1351 11.9843L68.7751 12.007L68.8869 23.6662L71.2465 23.6434ZM71.1351 11.9843L71.1577 14.3525L75.7243 14.3086L75.7017 11.9403L75.679 9.57198L71.1124 9.61594L71.1351 11.9843ZM75.7017 11.9403L73.3417 11.963L73.3738 15.3094L75.7338 15.2867L78.0933 15.264L78.0617 11.9176L75.7017 11.9403ZM75.7338 15.2867L77.3862 13.596L76.4427 12.6671L74.7902 14.3578L73.1373 16.0486L74.0808 16.9774L75.7338 15.2867ZM74.7902 14.3578L76.9109 15.3967C77.1705 14.8624 77.458 14.5827 77.7332 14.4199L76.5343 12.3799L75.3354 10.3399C74.146 11.0439 73.2704 12.0828 72.6691 13.319L74.7902 14.3578ZM76.5343 12.3799L77.7619 14.4025C78.1098 14.1899 78.5082 14.0686 79.0142 14.0637L78.9915 11.6954L78.9689 9.32713C77.6628 9.33968 76.4229 9.67467 75.3061 10.3573L76.5343 12.3799ZM78.9915 11.6954L79.0142 14.0637C79.5933 14.0581 80.0176 14.199 80.374 14.4408L81.6965 12.4794L83.0196 10.518C81.8075 9.6949 80.4288 9.31306 78.9689 9.32713L78.9915 11.6954ZM81.6965 12.4794L80.4146 14.4679C80.5925 14.5835 80.8484 14.8333 81.0211 15.5422L83.3136 14.9792L85.6061 14.4163C85.2186 12.8284 84.3969 11.4116 82.9785 10.4909L81.6965 12.4794ZM83.3136 14.9792L83.6629 12.6369L82.195 12.4165L81.8457 14.7589L81.4969 17.1012L82.9643 17.3216L83.3136 14.9792ZM81.8457 14.7589L84.0141 15.694C84.268 15.1013 84.6008 14.7122 85.0001 14.4397L83.6719 12.4817L82.3441 10.5238C81.1396 11.3467 80.2551 12.4757 79.6778 13.8237L81.8457 14.7589ZM83.6719 12.4817L85.0076 14.4343C85.4032 14.162 85.8827 13.9976 86.5327 13.9914L86.51 11.623L86.4873 9.2547C84.985 9.2692 83.5732 9.67718 82.3366 10.5291L83.6719 12.4817ZM96.2351 22.8273L95.2 24.9557L95.2057 24.9585L95.2113 24.9612L96.2351 22.8273ZM93.7722 20.698L91.7884 21.9807L91.7926 21.9877L91.7973 21.9947L93.7722 20.698ZM93.6915 14.453L91.6921 13.1946L91.685 13.2058L91.6779 13.217L93.6915 14.453ZM96.0283 12.2988L94.9409 10.1968L94.9352 10.1999L94.9291 10.2031L96.0283 12.2988ZM102.569 12.1505L101.585 14.3031L101.591 14.3058L101.597 14.3086L102.569 12.1505ZM104.925 14.1529L102.959 15.4638L102.967 15.4747L102.974 15.4855L104.925 14.1529ZM105.833 18.0451L108.188 18.1912L108.189 18.1856V18.18L105.833 18.0451ZM105.796 18.5997L105.819 20.9681L107.99 20.9472L108.149 18.7738L105.796 18.5997ZM96.8543 18.6859L94.4943 18.7086L94.517 21.0769L96.877 21.0542L96.8543 18.6859ZM96.8322 16.3625L96.8095 13.9942L94.4495 14.0169L94.4722 16.3853L96.8322 16.3625ZM103.225 16.301L104.008 18.5351L103.202 13.9327L103.225 16.301ZM101.426 16.9365L99.0657 16.9592L99.0973 20.2696L102.209 19.1706L101.426 16.9365ZM101.159 15.7879L99.0407 16.8303L99.068 16.8869L99.0987 16.942L101.159 15.7879ZM100.494 15.0483L99.2271 17.0463L99.263 17.0692L99.2993 17.0908L100.494 15.0483ZM98.4341 15.0681L99.6675 17.0872L99.6816 17.0786L99.6953 17.0698L98.4341 15.0681ZM97.7828 15.8205L99.9035 16.8593L99.9124 16.8406L99.9214 16.8218L97.7828 15.8205ZM98.7339 19.7762L97.6988 21.9047L97.7318 21.9209L97.7653 21.9361L98.7339 19.7762ZM101.389 19.7933L100.492 17.6028L100.476 17.6093L100.46 17.6159L101.389 19.7933ZM102.487 19.1432L104.147 17.4595L102.695 16.0174L101.065 17.2537L102.487 19.1432ZM105.018 21.6555L106.761 23.252L108.289 21.5716L106.678 19.9719L105.018 21.6555ZM102.929 23.0826L103.787 25.2889L103.797 25.2849L103.807 25.2809L102.929 23.0826ZM99.9596 23.5801L99.937 21.2118C98.8131 21.2226 97.9418 21.0232 97.2589 20.6933L96.2351 22.8273L95.2113 24.9612C96.6627 25.6624 98.2746 25.9649 99.9823 25.9484L99.9596 23.5801ZM96.2351 22.8273L97.2707 20.6988C96.565 20.3532 96.0831 19.9167 95.747 19.4013L93.7722 20.698L91.7973 21.9947C92.6399 23.287 93.8 24.2699 95.2 24.9557L96.2351 22.8273ZM93.7722 20.698L95.756 19.4153C95.4214 18.8939 95.2387 18.3008 95.2316 17.5717L92.8716 17.5944L90.5116 17.6171C90.5267 19.19 90.9444 20.666 91.7884 21.9807L93.7722 20.698ZM92.8716 17.5944L95.2316 17.5717C95.2241 16.7903 95.4001 16.1878 95.7046 15.6889L93.6915 14.453L91.6779 13.217C90.867 14.5478 90.4965 16.0397 90.5116 17.6171L92.8716 17.5944ZM93.6915 14.453L95.6904 15.7114C96.0331 15.1631 96.4961 14.7283 97.1281 14.3945L96.0283 12.2988L94.9291 10.2031C93.5881 10.9115 92.4931 11.9127 91.6921 13.1946L93.6915 14.453ZM96.0283 12.2988L97.1158 14.4008C97.7535 14.0685 98.5059 13.8761 99.4206 13.8673L99.398 11.4989L99.3753 9.1306C97.7983 9.1458 96.304 9.48657 94.9409 10.1968L96.0283 12.2988ZM99.398 11.4989L99.4206 13.8673C100.248 13.8592 100.957 14.0141 101.585 14.3031L102.569 12.1505L103.553 9.99796C102.246 9.396 100.842 9.11648 99.3753 9.1306L99.398 11.4989ZM102.569 12.1505L101.597 14.3086C102.179 14.573 102.618 14.9491 102.959 15.4638L104.925 14.1529L106.89 12.8421C106.053 11.5774 104.922 10.6187 103.542 9.99247L102.569 12.1505ZM104.925 14.1529L102.974 15.4855C103.261 15.9083 103.48 16.5307 103.489 17.4922L105.849 17.4694L108.209 17.4467C108.193 15.7652 107.796 14.1766 106.876 12.8203L104.925 14.1529ZM105.849 17.4694L103.489 17.4922C103.49 17.599 103.487 17.737 103.477 17.9103L105.833 18.0451L108.189 18.18C108.204 17.9267 108.211 17.6809 108.209 17.4467L105.849 17.4694ZM105.833 18.0451L103.477 17.8991C103.466 18.0903 103.454 18.2657 103.442 18.4257L105.796 18.5997L108.149 18.7738C108.163 18.5924 108.176 18.3981 108.188 18.1912L105.833 18.0451ZM105.796 18.5997L105.773 16.2315L96.8317 16.3175L96.8543 18.6859L96.877 21.0542L105.819 20.9681L105.796 18.5997ZM96.8543 18.6859L99.2139 18.6631L99.1917 16.3398L96.8322 16.3625L94.4722 16.3853L94.4943 18.7086L96.8543 18.6859ZM96.8322 16.3625L96.8548 18.7309L103.248 18.6693L103.225 16.301L103.202 13.9327L96.8095 13.9942L96.8322 16.3625ZM103.225 16.301L102.441 14.0669L100.642 14.7024L101.426 16.9365L102.209 19.1706L104.008 18.5351L103.225 16.301ZM101.426 16.9365L103.785 16.9138C103.778 16.17 103.632 15.3738 103.221 14.6339L101.159 15.7879L99.0987 16.942C99.0831 16.914 99.0727 16.8902 99.0661 16.8726C99.0595 16.8552 99.0572 16.8451 99.0572 16.8443C99.0567 16.8436 99.0647 16.8784 99.0657 16.9592L101.426 16.9365ZM101.159 15.7879L103.279 14.7456C102.936 14.0436 102.41 13.4306 101.689 13.0058L100.494 15.0483L99.2993 17.0908C99.2337 17.052 99.1728 17.002 99.1223 16.9463C99.0737 16.8919 99.0491 16.8478 99.0407 16.8303L101.159 15.7879ZM100.494 15.0483L101.761 13.0502C101.028 12.582 100.222 12.4052 99.4494 12.4127L99.4721 14.781L99.4947 17.1493C99.5103 17.1492 99.4848 17.1512 99.4296 17.1369C99.3725 17.1218 99.3007 17.0934 99.2271 17.0463L100.494 15.0483ZM99.4721 14.781L99.4494 12.4127C98.6744 12.4201 97.8866 12.6131 97.1725 13.0664L98.4341 15.0681L99.6953 17.0698C99.6415 17.104 99.5872 17.1264 99.5424 17.1389C99.499 17.1509 99.4796 17.1495 99.4947 17.1493L99.4721 14.781ZM98.4341 15.0681L97.2003 13.049C96.4876 13.4876 95.9731 14.1107 95.6441 14.8192L97.7828 15.8205L99.9214 16.8218C99.9129 16.8394 99.8893 16.8841 99.8416 16.9394C99.7925 16.996 99.7326 17.0472 99.6675 17.0872L98.4341 15.0681ZM97.7828 15.8205L95.6616 14.7817C95.3076 15.5103 95.1934 16.2807 95.2 16.9965L97.56 16.9737L99.92 16.951C99.919 16.8576 99.9266 16.8086 99.9294 16.7948C99.9318 16.7824 99.928 16.8089 99.9035 16.8593L97.7828 15.8205ZM97.56 16.9737L95.2 16.9965L95.2071 17.7211L97.5671 17.6984L99.9271 17.6757L99.92 16.951L97.56 16.9737ZM97.5671 17.6984L95.2071 17.7211C95.2146 18.5346 95.3864 19.3765 95.8287 20.1514L97.8767 18.9744L99.9242 17.7975C99.9417 17.8277 99.9441 17.8429 99.9408 17.8301C99.9375 17.8155 99.9275 17.7673 99.9271 17.6757L97.5671 17.6984ZM97.8767 18.9744L95.8287 20.1514C96.2686 20.9229 96.9105 21.5186 97.6988 21.9047L98.7339 19.7762L99.7689 17.6478C99.7826 17.6544 99.8143 17.6728 99.8511 17.7072C99.8879 17.7418 99.912 17.7759 99.9242 17.7975L97.8767 18.9744ZM98.7339 19.7762L97.7653 21.9361C98.5238 22.2784 99.3276 22.3948 100.097 22.3874L100.074 20.0191L100.052 17.6508C99.7732 17.6535 99.6835 17.608 99.7024 17.6164L98.7339 19.7762ZM100.074 20.0191L100.097 22.3874C100.815 22.3805 101.593 22.2821 102.318 21.9707L101.389 19.7933L100.46 17.6159C100.492 17.6023 100.482 17.6117 100.409 17.6243C100.336 17.6367 100.22 17.6492 100.052 17.6508L100.074 20.0191ZM101.389 19.7933L102.287 21.9838C102.866 21.7447 103.407 21.4143 103.91 21.0328L102.487 19.1432L101.065 17.2537C100.808 17.4479 100.618 17.5509 100.492 17.6028L101.389 19.7933ZM102.487 19.1432L100.828 20.8269L103.358 23.3392L105.018 21.6555L106.678 19.9719L104.147 17.4595L102.487 19.1432ZM105.018 21.6555L103.274 20.0591C102.972 20.3919 102.579 20.6715 102.051 20.8842L102.929 23.0826L103.807 25.2809C104.943 24.8239 105.943 24.1521 106.761 23.252L105.018 21.6555ZM102.929 23.0826L102.07 20.8763C101.589 21.0648 100.899 21.2025 99.937 21.2118L99.9596 23.5801L99.9823 25.9484C101.343 25.9354 102.632 25.7413 103.787 25.2889L102.929 23.0826Z" fill="#18181B"/>
</g>
<path d="M42.9232 41.4561L42.7805 26.5357L47.7928 26.4874L47.8985 37.5072L54.6099 37.4426L54.6472 41.3432L42.9232 41.4561ZM55.8829 41.3313L55.7715 29.6721L60.5717 29.6259L60.6831 41.2851L55.8829 41.3313ZM58.1626 28.7112C57.2847 28.7196 56.5814 28.4919 56.0533 28.028C55.5246 27.5641 55.2575 26.9841 55.2504 26.2877C55.2438 25.5915 55.5005 25.0063 56.0197 24.5324C56.5389 24.0584 57.238 23.8172 58.1159 23.8087C58.9933 23.8003 59.6966 24.0138 60.2248 24.4492C60.753 24.8847 61.0201 25.4506 61.0267 26.1469C61.0338 26.8858 60.778 27.4993 60.2583 27.9875C59.7391 28.4615 59.0405 28.7027 58.1626 28.7112ZM67.3577 41.434C66.3665 41.4435 65.3885 41.3463 64.4237 41.1425C63.4589 40.9386 62.6773 40.669 62.0793 40.3337L63.3659 37.1451C63.921 37.4666 64.5611 37.7163 65.2846 37.894C66.0228 38.0717 66.7389 38.1572 67.4327 38.1505C68.0133 38.1449 68.4022 38.0914 68.5995 37.99C68.8109 37.8885 68.9157 37.7525 68.9138 37.582C68.9124 37.4115 68.7906 37.2918 68.5494 37.2231C68.3078 37.1402 67.9887 37.0793 67.5918 37.0405C67.1948 37.0017 66.7554 36.9562 66.2735 36.904C65.8057 36.8374 65.3304 36.7425 64.8476 36.6192C64.3652 36.496 63.9243 36.3084 63.5255 36.0564C63.1266 35.8045 62.8047 35.4665 62.5598 35.0425C62.3148 34.6043 62.1893 34.0513 62.1831 33.3834C62.176 32.6445 62.3889 31.9746 62.8222 31.3735C63.2697 30.7723 63.9305 30.2899 64.8051 29.9262C65.6934 29.5482 66.7889 29.3529 68.0916 29.3403C68.9412 29.3321 69.7918 29.4021 70.6428 29.5502C71.4938 29.6984 72.2254 29.9329 72.8371 30.2538L71.5509 33.4425C70.9529 33.1213 70.3633 32.9068 69.7818 32.7987C69.214 32.6762 68.6826 32.6174 68.187 32.6222C67.5781 32.6281 67.1608 32.6889 66.9352 32.8047C66.7242 32.9205 66.619 33.0494 66.6204 33.1915C66.6223 33.362 66.7436 33.4887 66.9852 33.5717C67.2269 33.6546 67.546 33.7155 67.9429 33.7543C68.3399 33.7931 68.7722 33.8458 69.24 33.9123C69.7219 33.9645 70.1972 34.0595 70.6659 34.197C71.1483 34.3203 71.5891 34.5079 71.988 34.7599C72.3873 35.0118 72.7092 35.3569 72.9542 35.7951C73.1986 36.2191 73.3242 36.765 73.3308 37.4329C73.3374 38.1291 73.1241 38.7849 72.6913 39.4002C72.258 40.0012 71.5967 40.4907 70.7084 40.8688C69.8196 41.2326 68.7029 41.421 67.3577 41.434ZM80.4287 41.3081C78.8287 41.3235 77.5793 40.9519 76.6797 40.1931C75.7805 39.4202 75.3227 38.2308 75.3075 36.6251L75.2141 26.8629L80.0143 26.8167L80.1073 36.5362C80.1106 36.8915 80.205 37.1677 80.391 37.3649C80.5911 37.5619 80.8328 37.659 81.116 37.6563C81.5266 37.6524 81.8868 37.5423 82.1964 37.3262L83.375 40.6615C83.0092 40.8783 82.5645 41.0388 82.0416 41.1434C81.5328 41.2477 80.9951 41.3027 80.4287 41.3081ZM73.6862 33.6564L73.6522 30.1394L82.4244 30.0549L82.4579 33.5719L73.6862 33.6564Z" fill="white"/>
<mask id="mask1_2107_206" style="mask-type:luminance" maskUnits="userSpaceOnUse" x="40" y="21" width="47" height="23">
<path d="M86.1012 21.6204H40.583V43.8451H86.1012V21.6204Z" fill="white"/>
<path d="M42.9233 41.4561L42.7806 26.5357L47.7929 26.4874L47.8986 37.5072L54.61 37.4426L54.6473 41.3432L42.9233 41.4561ZM55.883 41.3313L55.7716 29.6721L60.5718 29.6259L60.6832 41.2851L55.883 41.3313ZM58.1627 28.7112C57.2848 28.7196 56.5815 28.4919 56.0534 28.028C55.5247 27.5641 55.2576 26.9841 55.2505 26.2877C55.2439 25.5915 55.5007 25.0063 56.0199 24.5324C56.5391 24.0584 57.2381 23.8172 58.116 23.8087C58.9935 23.8003 59.6967 24.0138 60.2249 24.4492C60.7531 24.8847 61.0202 25.4506 61.0268 26.1469C61.0339 26.8858 60.7781 27.4993 60.2584 27.9875C59.7392 28.4615 59.0407 28.7027 58.1627 28.7112ZM67.3578 41.434C66.3666 41.4435 65.3886 41.3463 64.4238 41.1425C63.4591 40.9386 62.6774 40.669 62.0794 40.3337L63.3661 37.1451C63.9211 37.4666 64.5612 37.7163 65.2847 37.894C66.023 38.0717 66.739 38.1572 67.4328 38.1505C68.0134 38.1449 68.4023 38.0914 68.5996 37.99C68.8111 37.8885 68.9158 37.7525 68.914 37.582C68.9125 37.4115 68.7908 37.2918 68.5496 37.2231C68.3079 37.1402 67.9888 37.0793 67.5919 37.0405C67.1949 37.0017 66.7555 36.9562 66.2736 36.904C65.8058 36.8374 65.3305 36.7425 64.8477 36.6192C64.3653 36.496 63.9244 36.3084 63.5256 36.0564C63.1268 35.8045 62.8049 35.4665 62.5599 35.0425C62.3149 34.6043 62.1894 34.0513 62.1832 33.3834C62.1762 32.6445 62.389 31.9746 62.8223 31.3735C63.2698 30.7723 63.9306 30.2899 64.8052 29.9262C65.6935 29.5482 66.789 29.3529 68.0917 29.3403C68.9413 29.3321 69.7919 29.4021 70.6429 29.5502C71.4939 29.6984 72.2255 29.9329 72.8372 30.2538L71.551 33.4425C70.953 33.1213 70.3635 32.9068 69.782 32.7987C69.2141 32.6762 68.6827 32.6174 68.1871 32.6222C67.5782 32.6281 67.1609 32.6889 66.9353 32.8047C66.7243 32.9205 66.6191 33.0494 66.6205 33.1915C66.6224 33.362 66.7437 33.4887 66.9854 33.5717C67.227 33.6546 67.5461 33.7155 67.9431 33.7543C68.34 33.7931 68.7724 33.8458 69.2401 33.9123C69.722 33.9645 70.1973 34.0595 70.666 34.197C71.1484 34.3203 71.5893 34.5079 71.9881 34.7599C72.3874 35.0118 72.7093 35.3569 72.9543 35.7951C73.1988 36.2191 73.3243 36.765 73.3309 37.4329C73.3375 38.1291 73.1242 38.7849 72.6914 39.4002C72.2581 40.0012 71.5968 40.4907 70.7085 40.8688C69.8197 41.2326 68.703 41.421 67.3578 41.434ZM80.4289 41.3081C78.8288 41.3235 77.5794 40.9519 76.6798 40.1931C75.7806 39.4202 75.3228 38.2308 75.3077 36.6251L75.2142 26.8629L80.0145 26.8167L80.1074 36.5362C80.1107 36.8915 80.2051 37.1677 80.3911 37.3649C80.5912 37.5619 80.8329 37.659 81.1161 37.6563C81.5267 37.6524 81.8869 37.5423 82.1965 37.3262L83.3751 40.6615C83.0093 40.8783 82.5647 41.0388 82.0417 41.1434C81.5329 41.2477 80.9953 41.3027 80.4289 41.3081ZM73.6864 33.6564L73.6524 30.1394L82.4245 30.0549L82.458 33.5719L73.6864 33.6564Z" fill="black"/>
</mask>
<g mask="url(#mask1_2107_206)">
<path d="M42.9232 41.4561L41.0353 41.4742L41.0534 43.3689L42.9414 43.3507L42.9232 41.4561ZM42.7805 26.5357L42.7625 24.641L40.8745 24.6592L40.8926 26.5539L42.7805 26.5357ZM47.7928 26.4874L49.6808 26.4693L49.6629 24.5746L47.7749 24.5927L47.7928 26.4874ZM47.8985 37.5072L46.0104 37.5254L46.0285 39.42L47.9165 39.4018L47.8985 37.5072ZM54.6099 37.4425L56.4979 37.4244L56.4795 35.5297L54.592 35.5479L54.6099 37.4425ZM54.6472 41.3432L54.6651 43.2378L56.5531 43.2196L56.5352 41.325L54.6472 41.3432ZM42.9232 41.4561L44.8111 41.4379L44.6685 26.5175L42.7805 26.5357L40.8926 26.5539L41.0353 41.4742L42.9232 41.4561ZM42.7805 26.5357L42.7987 28.4303L47.8112 28.3821L47.7928 26.4874L47.7749 24.5927L42.7625 24.641L42.7805 26.5357ZM47.7928 26.4874L45.905 26.5056L46.0104 37.5254L47.8985 37.5072L49.7861 37.489L49.6808 26.4693L47.7928 26.4874ZM47.8985 37.5072L47.9165 39.4018L54.6278 39.3372L54.6099 37.4425L54.592 35.5479L47.8801 35.6125L47.8985 37.5072ZM54.6099 37.4425L52.7219 37.4607L52.7592 41.3613L54.6472 41.3432L56.5352 41.325L56.4979 37.4244L54.6099 37.4425ZM54.6472 41.3432L54.6293 39.4485L42.9051 39.5614L42.9232 41.4561L42.9414 43.3507L54.6651 43.2378L54.6472 41.3432ZM55.8829 41.3312L53.9949 41.3494L54.0133 43.2441L55.9013 43.2259L55.8829 41.3312ZM55.7715 29.6721L55.7536 27.7774L53.8656 27.7956L53.8835 29.6902L55.7715 29.6721ZM60.5717 29.6258L62.4593 29.6076L62.4413 27.713L60.5533 27.7312L60.5717 29.6258ZM60.6831 41.2851L60.7011 43.1797L62.5891 43.1615L62.5711 41.2669L60.6831 41.2851ZM60.2583 27.9875L61.5285 29.3893L61.5389 29.3799L61.5492 29.3702L60.2583 27.9875ZM55.8829 41.3312L57.7709 41.3131L57.6595 29.6539L55.7715 29.6721L53.8835 29.6902L53.9949 41.3494L55.8829 41.3312ZM55.7715 29.6721L55.7894 31.5667L60.5897 31.5205L60.5717 29.6258L60.5533 27.7312L55.7536 27.7774L55.7715 29.6721ZM60.5717 29.6258L58.6837 29.644L58.7951 41.3032L60.6831 41.2851L62.5711 41.2669L62.4593 29.6076L60.5717 29.6258ZM60.6831 41.2851L60.6647 39.3904L55.8649 39.4366L55.8829 41.3312L55.9013 43.2259L60.7011 43.1797L60.6831 41.2851ZM58.1626 28.7111L58.1442 26.8165C57.6095 26.8216 57.3947 26.6882 57.2961 26.6019L56.0533 28.028L54.81 29.454C55.7687 30.2954 56.96 30.6175 58.1806 30.6057L58.1626 28.7111ZM56.0533 28.028L57.2961 26.6019C57.1677 26.4888 57.1398 26.4185 57.1384 26.2695L55.2504 26.2877L53.3629 26.3059C53.3747 27.5495 53.8821 28.6393 54.81 29.454L56.0533 28.028ZM55.2504 26.2877L57.1384 26.2695C57.137 26.1206 57.1634 26.0497 57.2899 25.9342L56.0198 24.5323L54.7496 23.1304C53.8372 23.9628 53.3506 25.0623 53.3629 26.3059L55.2504 26.2877ZM56.0198 24.5323L57.2899 25.9342C57.3867 25.846 57.5986 25.7085 58.1339 25.7034L58.1159 23.8087L58.0975 21.914C56.8769 21.9258 55.6917 22.2708 54.7496 23.1304L56.0198 24.5323ZM58.1159 23.8087L58.1339 25.7034C58.6969 25.6979 58.9282 25.8326 59.0259 25.9131L60.2248 24.4492L61.4232 22.9853C60.4646 22.1949 59.2903 21.9026 58.0975 21.914L58.1159 23.8087ZM60.2248 24.4492L59.0259 25.9131C59.0958 25.9708 59.1118 26.0046 59.1156 26.012C59.1194 26.0202 59.1378 26.0606 59.1387 26.165L61.0267 26.1468L62.9147 26.1286C62.9029 24.8816 62.3903 23.7828 61.4232 22.9853L60.2248 24.4492ZM61.0267 26.1468L59.1387 26.165C59.1411 26.3946 59.0863 26.4931 58.9679 26.6047L60.2583 27.9875L61.5492 29.3702C62.4692 28.5054 62.9265 27.3769 62.9147 26.1286L61.0267 26.1468ZM60.2583 27.9875L58.9882 26.5856C58.8919 26.6738 58.6795 26.8113 58.1442 26.8165L58.1626 28.7111L58.1806 30.6057C59.4016 30.594 60.5864 30.249 61.5285 29.3893L60.2583 27.9875ZM62.0793 40.3337L60.3296 39.6226L59.7042 41.1722L61.1584 41.9877L62.0793 40.3337ZM63.366 37.145L64.3095 35.5038L62.43 34.4159L61.6158 36.434L63.366 37.145ZM65.2847 37.894L64.8358 39.7344L64.84 39.7354L64.8443 39.7365L65.2847 37.894ZM68.5995 37.99L67.7844 36.2808L67.7617 36.2918L67.7386 36.3035L68.5995 37.99ZM68.5495 37.2231L67.9382 39.0157L67.9859 39.0321L68.0341 39.0458L68.5495 37.2231ZM66.2735 36.9039L66.0087 38.7799L66.0398 38.7843L66.071 38.7877L66.2735 36.9039ZM62.5598 35.0425L60.9135 35.9694L60.9196 35.9809L60.9262 35.9923L62.5598 35.0425ZM62.8222 31.3734L61.3095 30.2397L61.301 30.2512L61.2925 30.2629L62.8222 31.3734ZM64.8051 29.9262L65.5277 31.6765L65.5348 31.6736L65.5419 31.6705L64.8051 29.9262ZM72.8371 30.2538L74.5873 30.9649L75.2302 29.371L73.7117 28.5745L72.8371 30.2538ZM71.5509 33.4424L70.6598 35.1129L72.5124 36.1079L73.3006 34.1535L71.5509 33.4424ZM69.7819 32.7986L69.3849 34.6511L69.4113 34.6567L69.4378 34.6617L69.7819 32.7986ZM66.9352 32.8047L66.0748 31.1182L66.0526 31.1295L66.0309 31.1415L66.9352 32.8047ZM69.24 33.9123L68.9752 35.7883L69.0064 35.7927L69.0375 35.7961L69.24 33.9123ZM70.6659 34.197L70.1359 36.0155L70.168 36.0249L70.2001 36.0332L70.6659 34.197ZM72.9542 35.795L71.3074 36.722L71.314 36.7335L71.3206 36.7449L72.9542 35.795ZM72.6913 39.4001L74.2206 40.5106L74.2272 40.502L74.2333 40.4933L72.6913 39.4001ZM70.7084 40.8687L71.4216 42.6231L71.4334 42.6182L71.4452 42.6132L70.7084 40.8687ZM67.3577 41.4339L67.3397 39.5393C66.4845 39.5475 65.6429 39.4638 64.8127 39.2883L64.4237 41.1424L64.0348 42.9965C65.1341 43.2288 66.2485 43.3394 67.3761 43.3286L67.3577 41.4339ZM64.4237 41.1424L64.8127 39.2883C63.9597 39.1081 63.3768 38.8906 63.0006 38.6796L62.0793 40.3337L61.1584 41.9877C61.9783 42.4473 62.9582 42.769 64.0348 42.9965L64.4237 41.1424ZM62.0793 40.3337L63.8295 41.0448L65.1161 37.8561L63.366 37.145L61.6158 36.434L60.3296 39.6226L62.0793 40.3337ZM63.366 37.145L62.4224 38.7863C63.155 39.2105 63.9664 39.5208 64.8358 39.7344L65.2847 37.894L65.7335 36.0535C65.1558 35.9116 64.6871 35.7227 64.3095 35.5038L63.366 37.145ZM65.2847 37.894L64.8443 39.7365C65.7189 39.9469 66.5888 40.0534 67.4507 40.0451L67.4327 38.1504L67.4143 36.2558C66.8885 36.2608 66.3268 36.1964 65.725 36.0515L65.2847 37.894ZM67.4327 38.1504L67.4507 40.0451C67.7867 40.0418 68.1148 40.0247 68.4159 39.9833C68.6849 39.9463 69.0795 39.872 69.46 39.6765L68.5995 37.99L67.7386 36.3035C67.8453 36.2487 67.9208 36.2284 67.9349 36.2247C67.9529 36.2199 67.9458 36.2231 67.9033 36.2289C67.8155 36.241 67.6588 36.2534 67.4143 36.2558L67.4327 38.1504ZM68.5995 37.99L69.4142 39.6992C69.9938 39.421 70.8132 38.7489 70.8019 37.5637L68.9139 37.5819L67.0259 37.6001C67.023 37.2553 67.1387 36.9178 67.3435 36.6521C67.5252 36.4166 67.7173 36.3131 67.7844 36.2808L68.5995 37.99ZM68.9139 37.5819L70.8019 37.5637C70.7962 36.975 70.5611 36.4228 70.1439 36.0118C69.7757 35.6493 69.3557 35.4831 69.0649 35.4002L68.5495 37.2231L68.0341 39.0458C67.9845 39.0317 67.7461 38.9596 67.4993 38.7169C67.2033 38.4255 67.0301 38.0183 67.0259 37.6001L68.9139 37.5819ZM68.5495 37.2231L69.1607 35.4304C68.726 35.281 68.246 35.2007 67.7749 35.1546L67.5918 37.0404L67.4087 38.9262C67.7315 38.9578 67.8901 38.9992 67.9382 39.0157L68.5495 37.2231ZM67.5918 37.0404L67.7749 35.1546C67.386 35.1165 66.9532 35.0717 66.4764 35.0201L66.2735 36.9039L66.071 38.7877C66.5581 38.8405 67.0041 38.8866 67.4087 38.9262L67.5918 37.0404ZM66.2735 36.9039L66.5388 35.0279C66.1418 34.9715 65.7335 34.8902 65.3134 34.783L64.8476 36.6192L64.3822 38.4554C64.9273 38.5947 65.4697 38.7032 66.0087 38.7799L66.2735 36.9039ZM64.8476 36.6192L65.3134 34.783C65.0109 34.7057 64.7541 34.5936 64.5313 34.4528L63.5255 36.0564L62.5197 37.6599C63.0946 38.0231 63.7195 38.2862 64.3822 38.4554L64.8476 36.6192ZM63.5255 36.0564L64.5313 34.4528C64.4006 34.3704 64.2906 34.2607 64.1934 34.0925L62.5598 35.0425L60.9262 35.9923C61.3189 36.6722 61.8523 37.2384 62.5197 37.6599L63.5255 36.0564ZM62.5598 35.0425L64.2066 34.1155C64.1599 34.0316 64.0754 33.8157 64.0707 33.3652L62.1831 33.3834L60.2951 33.4016C60.3036 34.2868 60.4703 35.1769 60.9135 35.9694L62.5598 35.0425ZM62.1831 33.3834L64.0707 33.3652C64.0678 33.0329 64.1542 32.7582 64.352 32.484L62.8222 31.3734L61.2925 30.2629C60.6236 31.1907 60.2843 32.256 60.2951 33.4016L62.1831 33.3834ZM62.8222 31.3734L64.335 32.5072C64.5318 32.2429 64.8849 31.944 65.5277 31.6765L64.8051 29.9262L64.082 28.1757C62.9761 28.6357 62.0076 29.3017 61.3095 30.2397L62.8222 31.3734ZM64.8051 29.9262L65.5419 31.6705C66.1385 31.4168 66.973 31.2458 68.11 31.2349L68.0916 29.3403L68.0737 27.4456C66.6053 27.4597 65.2488 27.6794 64.0678 28.1817L64.8051 29.9262ZM68.0916 29.3403L68.11 31.2349C68.8435 31.2278 69.5799 31.2882 70.3199 31.417L70.6428 29.5502L70.9652 27.6833C70.0037 27.5159 69.0394 27.4363 68.0737 27.4456L68.0916 29.3403ZM70.6428 29.5502L70.3199 31.417C71.0246 31.5397 71.5613 31.7224 71.963 31.9331L72.8371 30.2538L73.7117 28.5745C72.8895 28.1433 71.963 27.8569 70.9652 27.6833L70.6428 29.5502ZM72.8371 30.2538L71.0874 29.5427L69.8007 32.7313L71.5509 33.4424L73.3006 34.1535L74.5873 30.9649L72.8371 30.2538ZM71.5509 33.4424L72.4416 31.7719C71.6972 31.3719 70.9236 31.0839 70.1255 30.9355L69.7819 32.7986L69.4378 34.6617C69.8026 34.7294 70.209 34.8707 70.6598 35.1129L71.5509 33.4424ZM69.7819 32.7986L70.1783 30.9462C69.4973 30.7992 68.8251 30.7211 68.1686 30.7275L68.187 32.6221L68.2049 34.5168C68.54 34.5135 68.9309 34.5531 69.3849 34.6511L69.7819 32.7986ZM68.187 32.6221L68.1686 30.7275C67.8132 30.7309 67.4662 30.7504 67.1457 30.7971C66.8493 30.8404 66.4543 30.9232 66.0748 31.1182L66.9352 32.8047L67.7957 34.4912C67.7074 34.5367 67.6475 34.5533 67.6395 34.5555C67.6286 34.5585 67.6423 34.554 67.689 34.5472C67.7858 34.5331 67.9515 34.5192 68.2049 34.5168L68.187 32.6221ZM66.9352 32.8047L66.0309 31.1415C65.6547 31.3475 64.7206 31.9733 64.7324 33.2096L66.6204 33.1914L68.5084 33.1733C68.5127 33.6192 68.3366 33.9702 68.1601 34.1871C68.0053 34.3772 67.8599 34.457 67.8396 34.4679L66.9352 32.8047ZM66.6204 33.1914L64.7324 33.2096C64.7381 33.7953 64.9694 34.3288 65.3526 34.7285C65.6948 35.0851 66.0894 35.2666 66.374 35.3643L66.9853 33.5716L67.5965 31.7789C67.6395 31.7937 67.8523 31.8704 68.0728 32.1003C68.3347 32.3732 68.5046 32.7581 68.5084 33.1733L66.6204 33.1914ZM66.9853 33.5716L66.374 35.3643C66.8087 35.5136 67.2888 35.594 67.7598 35.6401L67.943 33.7543L68.1261 31.8684C67.8032 31.8369 67.6446 31.7955 67.5965 31.7789L66.9853 33.5716ZM67.943 33.7543L67.7598 35.6401C68.1247 35.6758 68.5297 35.7249 68.9752 35.7883L69.24 33.9123L69.5048 32.0363C69.0144 31.9666 68.5547 31.9104 68.1261 31.8684L67.943 33.7543ZM69.24 33.9123L69.0375 35.7961C69.4076 35.8362 69.7734 35.9091 70.1359 36.0155L70.6659 34.197L71.196 32.3785C70.6211 32.2097 70.0363 32.0928 69.4425 32.0285L69.24 33.9123ZM70.6659 34.197L70.2001 36.0332C70.5026 36.1105 70.7598 36.2226 70.9826 36.3634L71.988 34.7598L72.9938 33.1562C72.4189 32.7931 71.7945 32.53 71.1313 32.3608L70.6659 34.197ZM71.988 34.7598L70.9826 36.3634C71.0983 36.4365 71.2064 36.5418 71.3074 36.722L72.9542 35.795L74.6005 34.8681C74.2116 34.1719 73.6759 33.5871 72.9938 33.1562L71.988 34.7598ZM72.9542 35.795L71.3206 36.7449C71.3527 36.8012 71.4386 36.9967 71.4428 37.451L73.3308 37.4328L75.2188 37.4146C75.2103 36.5332 75.0447 35.6369 74.5878 34.8451L72.9542 35.795ZM73.3308 37.4328L71.4428 37.451C71.4452 37.7165 71.373 37.9884 71.1493 38.3069L72.6913 39.4001L74.2333 40.4933C74.8752 39.5813 75.2292 38.5417 75.2188 37.4146L73.3308 37.4328ZM72.6913 39.4001L71.1615 38.2896C70.9826 38.5375 70.6376 38.8408 69.9716 39.1243L70.7084 40.8687L71.4452 42.6132C72.5563 42.1406 73.5328 41.4648 74.2206 40.5106L72.6913 39.4001ZM70.7084 40.8687L69.9952 39.1144C69.3967 39.3594 68.5348 39.5278 67.3397 39.5393L67.3577 41.4339L67.3761 43.3286C68.8709 43.3142 70.2425 43.1058 71.4216 42.6231L70.7084 40.8687ZM76.6797 40.1931L75.452 41.6323L75.4581 41.6379L75.4647 41.6434L76.6797 40.1931ZM75.2141 26.8629L75.1962 24.9682L73.3082 24.9864L73.3261 26.8811L75.2141 26.8629ZM80.0144 26.8166L81.9019 26.7985L81.8839 24.9038L79.9959 24.922L80.0144 26.8166ZM80.391 37.3648L79.0198 38.6674L79.0439 38.6928L79.0689 38.7174L80.391 37.3648ZM82.1964 37.3261L83.9758 36.6927L83.1484 34.3526L81.1179 35.7709L82.1964 37.3261ZM83.375 40.6615L84.3341 42.2935L85.6751 41.5001L85.1544 40.0281L83.375 40.6615ZM82.0416 41.1433L81.673 39.2851L81.6682 39.286L81.6635 39.287L82.0416 41.1433ZM73.6863 33.6563L71.7983 33.6745L71.8162 35.5692L73.7042 35.551L73.6863 33.6563ZM73.6523 30.1394L73.6343 28.2447L71.7463 28.2629L71.7647 30.1575L73.6523 30.1394ZM82.4244 30.0549L84.3119 30.0367L84.294 28.1421L82.406 28.1603L82.4244 30.0549ZM82.4579 33.5719L82.4758 35.4665L84.3638 35.4483L84.3459 33.5537L82.4579 33.5719ZM80.4288 41.3081L80.4108 39.4134C79.0977 39.426 78.3416 39.1198 77.8946 38.7427L76.6797 40.1931L75.4647 41.6434C76.8166 42.7837 78.5597 43.2209 80.4472 43.2027L80.4288 41.3081ZM76.6797 40.1931L77.9078 38.7538C77.5538 38.4498 77.2074 37.8674 77.1956 36.6068L75.3076 36.625L73.4196 36.6432C73.4385 38.5941 74.0067 40.3904 75.452 41.6323L76.6797 40.1931ZM75.3076 36.625L77.1956 36.6068L77.1021 26.8447L75.2141 26.8629L73.3261 26.8811L73.4196 36.6432L75.3076 36.625ZM75.2141 26.8629L75.2325 28.7575L80.0323 28.7113L80.0144 26.8166L79.9959 24.922L75.1962 24.9682L75.2141 26.8629ZM80.0144 26.8166L78.1264 26.8348L78.2193 36.5544L80.1073 36.5362L81.9949 36.518L81.9019 26.7985L80.0144 26.8166ZM80.1073 36.5362L78.2193 36.5544C78.2259 37.2361 78.4157 38.0264 79.0198 38.6674L80.391 37.3648L81.7622 36.0623C81.8684 36.1747 81.9326 36.2954 81.9661 36.3934C81.9972 36.4843 81.9953 36.5345 81.9949 36.518L80.1073 36.5362ZM80.391 37.3648L79.0689 38.7174C79.6306 39.2703 80.3561 39.5584 81.1344 39.5509L81.116 37.6562L81.0981 35.7616C81.1811 35.7608 81.2972 35.7753 81.4247 35.8266C81.5526 35.878 81.6494 35.9492 81.7136 36.0122L80.391 37.3648ZM81.116 37.6562L81.1344 39.5509C81.8891 39.5436 82.6259 39.3344 83.2749 38.8813L82.1964 37.3261L81.1179 35.7709C81.1198 35.7694 81.1245 35.7667 81.1302 35.7638C81.1358 35.761 81.141 35.7592 81.1438 35.7582C81.1472 35.7573 81.1457 35.758 81.1391 35.759C81.1325 35.7599 81.1193 35.7614 81.0981 35.7616L81.116 37.6562ZM82.1964 37.3261L80.417 37.9596L81.596 41.2949L83.375 40.6615L85.1544 40.0281L83.9758 36.6927L82.1964 37.3261ZM83.375 40.6615L82.4159 39.0295C82.2724 39.1145 82.0383 39.212 81.673 39.2851L82.0416 41.1433L82.4102 43.0015C83.0909 42.8656 83.7455 42.6419 84.3341 42.2935L83.375 40.6615ZM82.0416 41.1433L81.6635 39.287C81.2836 39.365 80.8668 39.409 80.4108 39.4134L80.4288 41.3081L80.4472 43.2027C81.1236 43.1962 81.7825 43.1304 82.4197 42.9996L82.0416 41.1433ZM73.6863 33.6563L75.5738 33.6381L75.5403 30.1212L73.6523 30.1394L71.7647 30.1575L71.7983 33.6745L73.6863 33.6563ZM73.6523 30.1394L73.6707 32.034L82.4423 31.9495L82.4244 30.0549L82.406 28.1603L73.6343 28.2447L73.6523 30.1394ZM82.4244 30.0549L80.5364 30.0731L80.5699 33.5901L82.4579 33.5719L84.3459 33.5537L84.3119 30.0367L82.4244 30.0549ZM82.4579 33.5719L82.4395 31.6772L73.6678 31.7617L73.6863 33.6563L73.7042 35.551L82.4758 35.4665L82.4579 33.5719Z" fill="#18181B"/>
</g>
<path d="M17.7001 32.8618V27.0592H19.8241V32.8618H17.7001ZM15.7531 30.9671V28.9539H21.7711V30.9671H15.7531Z" fill="white"/>
</svg>
